<?xml version="1.0" encoding="UTF-8"?>
<svg version="1.1" xmlns="http://www.w3.org/2000/svg" width="124" height="100">
<path d="M0 0 C1.78724737 1.15620505 3.45199094 2.36995969 4.9609375 3.87890625 C5.05498892 5.87322355 5.07836999 7.87090168 5.07446289 9.86743164 C5.07438736 11.14868423 5.07431183 12.42993683 5.07423401 13.75001526 C5.06912659 15.15886473 5.06391059 16.56771381 5.05859375 17.9765625 C5.05672952 19.41002859 5.05530564 20.84349532 5.05430603 22.27696228 C5.05048122 26.05650582 5.04065127 29.83601115 5.02960205 33.61553955 C5.01938713 37.46959923 5.01480824 41.32366507 5.00976562 45.17773438 C4.99902896 52.74480912 4.98195299 60.31185234 4.9609375 67.87890625 C1.64907018 67.10806322 -1.10662608 65.94338304 -4.1640625 64.44140625 C-14.57461961 59.65144247 -24.10192481 59.43079256 -35.328125 60.390625 C-36.4001416 60.48174561 -37.4721582 60.57286621 -38.57666016 60.66674805 C-39.38925293 60.73676025 -40.2018457 60.80677246 -41.0390625 60.87890625 C-41.08981721 53.01353718 -41.1248192 45.14821043 -41.14892578 37.28271484 C-41.15784585 34.60750659 -41.17261887 31.93251236 -41.18994141 29.25732422 C-41.21422951 25.40980317 -41.22555495 21.56242753 -41.234375 17.71484375 C-41.24469757 16.52087982 -41.25502014 15.32691589 -41.26565552 14.09677124 C-41.26580658 12.97606232 -41.26595764 11.85535339 -41.26611328 10.70068359 C-41.2705545 9.71917328 -41.27499573 8.73766296 -41.27957153 7.72640991 C-41.00716377 4.5012416 -40.24963083 1.87566893 -39.0390625 -1.12109375 C-28.51999996 -9.40347141 -10.77036055 -5.92163501 0 0 Z " fill="#066DAF" transform="translate(56.0390625,19.12109375)"/>
<path d="M0 0 C0.79857422 -0.01611328 1.59714844 -0.03222656 2.41992188 -0.04882812 C3.60618164 -0.04979492 3.60618164 -0.04979492 4.81640625 -0.05078125 C5.5132251 -0.05376221 6.21004395 -0.05674316 6.92797852 -0.05981445 C9.4375 0.3125 9.4375 0.3125 17.4375 3.3125 C17.4375 24.1025 17.4375 44.8925 17.4375 66.3125 C11.4975 65.6525 5.5575 64.9925 -0.5625 64.3125 C0.73690187 61.06399533 1.88092009 58.45833503 3.5625 55.5 C5.75709008 51.10253836 6.14796401 48.20680764 5.4375 43.3125 C2.08315026 37.44238795 -3.09860989 35.13011241 -9.015625 32.12109375 C-11.5625 30.3125 -11.5625 30.3125 -12.51171875 27.7109375 C-12.5625 25.3125 -12.5625 25.3125 -11.125 23.5 C-10.609375 23.108125 -10.09375 22.71625 -9.5625 22.3125 C-15.40270748 23.4791941 -15.40270748 23.4791941 -19.5625 27.3125 C-19.29064727 30.02547926 -18.83284354 31.06948789 -16.78515625 32.91015625 C-16.07230469 33.39355469 -15.35945313 33.87695312 -14.625 34.375 C-11.81067107 36.30059348 -10.50383991 37.40049013 -8.5625 40.3125 C-8.5625 45.16954457 -10.31028914 47.97741258 -13.47265625 51.43359375 C-24.4606289 61.3125 -24.4606289 61.3125 -29.5625 61.3125 C-29.5625 43.8225 -29.5625 26.3325 -29.5625 8.3125 C-18.53462204 2.29729384 -11.92509112 -0.04835803 0 0 Z " fill="#39A359" transform="translate(91.5625,13.6875)"/>
<path d="M0 0 C0.33 0 0.66 0 1 0 C1.33 14.19 1.66 28.38 2 43 C2.33 37.39 2.66 31.78 3 26 C4 23 4 23 5.375 21.6875 C7.56016173 19.41829358 8.62201347 16.81588551 10 14 C12.49505962 11.50494038 13.67328888 11.64051624 17.125 11.375 C18.03507812 11.30023438 18.94515625 11.22546875 19.8828125 11.1484375 C20.58148438 11.09945312 21.28015625 11.05046875 22 11 C22 11.66 22 12.32 22 13 C21.30132812 13.26554687 20.60265625 13.53109375 19.8828125 13.8046875 C18.97273438 14.15789063 18.06265625 14.51109375 17.125 14.875 C15.76761719 15.39707031 15.76761719 15.39707031 14.3828125 15.9296875 C11.87782993 16.88530895 11.87782993 16.88530895 10 19 C10.18265349 21.73980237 10.72606352 22.75375819 12.77734375 24.59765625 C13.49019531 25.08105469 14.20304687 25.56445312 14.9375 26.0625 C17.75182893 27.98809348 19.05866009 29.08799013 21 32 C21 36.85704457 19.25221086 39.66491258 16.08984375 43.12109375 C5.1018711 53 5.1018711 53 0 53 C0 35.51 0 18.02 0 0 Z " fill="#2F9956" transform="translate(62,22)"/>
<path d="M0 0 C2.19330777 1.32711014 3.599665 2.11604628 6.15625 2.3046875 C8.50839114 1.21558807 8.50839114 1.21558807 10.84375 -0.4453125 C21.40124847 -7.14675851 34.16304506 -9.56700398 46.5546875 -7.24609375 C48.11018556 -6.79849125 49.63924643 -6.25977895 51.15625 -5.6953125 C51.65125 -3.2203125 51.65125 -3.2203125 52.15625 -0.6953125 C51.00125 -0.8603125 49.84625 -1.0253125 48.65625 -1.1953125 C34.00680655 -2.76902838 21.96139252 -2.23548725 9.3828125 6 C7.18200081 7.28959843 5.69851254 8.10718105 3.15625 8.3046875 C1.21875 7.23046875 1.21875 7.23046875 -0.84375 5.6171875 C-13.00613997 -2.88063871 -26.59258711 -3.02203297 -40.84375 -0.6953125 C-40.84375 -2.0153125 -40.84375 -3.3353125 -40.84375 -4.6953125 C-28.40331039 -11.8724892 -11.14378904 -7.46633866 0 0 Z " fill="#0E63A4" transform="translate(56.84375,87.6953125)"/>
<path d="M0 0 C0.495 2.475 0.495 2.475 1 5 C-0.155 4.835 -1.31 4.67 -2.5 4.5 C-18.8635242 2.74214906 -30.72189752 4.61229341 -45 13 C-45.33 11.68 -45.66 10.36 -46 9 C-32.98941834 -0.6374679 -15.79762858 -5.87818738 0 0 Z " fill="#38A25D" transform="translate(108,82)"/>
<path d="M0 0 C-1.32 1.32 -2.64 2.64 -4 4 C-4.99 3.67 -5.98 3.34 -7 3 C-6.98525131 3.68238235 -6.97050262 4.36476471 -6.95530701 5.06782532 C-6.8031334 12.15634235 -6.65832017 19.24498237 -6.51782227 26.33374023 C-6.46438173 28.98091465 -6.40905082 31.62805159 -6.35180664 34.27514648 C-6.26995332 38.07527587 -6.1948512 41.8754872 -6.12109375 45.67578125 C-6.09405869 46.86335526 -6.06702362 48.05092926 -6.03916931 49.27449036 C-6.01907303 50.37540512 -5.99897675 51.47631989 -5.97827148 52.6105957 C-5.94829323 54.06620659 -5.94829323 54.06620659 -5.91770935 55.55122375 C-6 58 -6 58 -7 61 C-4.02934491 60.65772428 -4.02934491 60.65772428 -1 60 C-0.67 59.34 -0.34 58.68 0 58 C5.28 58.33 10.56 58.66 16 59 C16 59.33 16 59.66 16 60 C15.32195313 60.04898438 14.64390625 60.09796875 13.9453125 60.1484375 C8.24826357 60.60609517 2.76789324 61.33904222 -2.80859375 62.59765625 C-5 63 -5 63 -9 63 C-9.05075471 55.13463093 -9.0857567 47.26930418 -9.10986328 39.40380859 C-9.11878335 36.72860034 -9.13355637 34.05360611 -9.15087891 31.37841797 C-9.17516701 27.53089692 -9.18649245 23.68352128 -9.1953125 19.8359375 C-9.20563507 18.64197357 -9.21595764 17.44800964 -9.22659302 16.21786499 C-9.22674408 15.09715607 -9.22689514 13.97644714 -9.22705078 12.82177734 C-9.231492 11.84026703 -9.23593323 10.85875671 -9.24050903 9.84750366 C-8.96689221 6.60802069 -8.25537154 3.99644771 -7 1 C-2.81395349 -1.40697674 -2.81395349 -1.40697674 0 0 Z " fill="#165EA3" transform="translate(24,17)"/>
<path d="M0 0 C-0.625 1.875 -0.625 1.875 -2 4 C-4.7479571 5.14498213 -7.010197 6 -10 6 C-9.9592334 6.65669678 -9.9184668 7.31339355 -9.87646484 7.98999023 C-8.90544867 24.52447648 -9.25476297 40.5302601 -11 57 C-11.33 57 -11.66 57 -12 57 C-12.20291281 49.82886121 -12.34296574 42.65846241 -12.43945312 35.48510742 C-12.47967477 33.04537291 -12.53426154 30.6058311 -12.60351562 28.16674805 C-12.70061981 24.6588594 -12.7459407 21.1535189 -12.78125 17.64453125 C-12.82254028 16.55477493 -12.86383057 15.46501862 -12.90637207 14.34223938 C-12.91076172 6.92735397 -12.91076172 6.92735397 -10.23608398 4.20394897 C-8.19865296 2.91236118 -6.23061 1.90956172 -4 1 C-2 0 -2 0 0 0 Z " fill="#38A16B" transform="translate(75,16)"/>
<path d="M0 0 C3.40113555 1.40736644 5.03200005 2.89808318 7 6 C8.33735193 11.70285072 8.11636759 17.29412122 7 23 C5.68 23.33 4.36 23.66 3 24 C3 24.66 3 25.32 3 26 C5.64 26.66 8.28 27.32 11 28 C6.36533108 29.15866723 3.66739961 28.70010994 -1 28 C-0.11616115 25.64309641 0.79447437 23.36790657 2.0234375 21.16796875 C4.82439395 16.13220661 5.82473613 12.7731529 5 7 C3.55361582 4.36247591 1.94212312 2.33054775 0 0 Z " fill="#52A36B" transform="translate(92,50)"/>
<path d="M0 0 C-0.33 0.99 -0.66 1.98 -1 3 C-0.05898438 2.97679688 0.88203125 2.95359375 1.8515625 2.9296875 C3.71941406 2.90261719 3.71941406 2.90261719 5.625 2.875 C6.85476562 2.85179688 8.08453125 2.82859375 9.3515625 2.8046875 C12.94316041 2.9969572 15.66661175 3.69741444 19 5 C15.65692865 6.11435712 15.23366943 5.81399265 12 5 C4.29229011 4.6980851 -3.37648866 4.75534509 -11 6 C-11 4.68 -11 3.36 -11 2 C-7.36576791 -0.32590854 -4.22911669 -0.16265833 0 0 Z " fill="#165D9E" transform="translate(27,81)"/>
<path d="M0 0 C7.03482474 -0.23668569 13.1834265 0.2120463 20 2 C17.55431378 4.92746298 17.55431378 4.92746298 15.09887695 5.2487793 C14.40238037 5.19117432 13.70588379 5.13356934 12.98828125 5.07421875 C12.23095703 5.01943359 11.47363281 4.96464844 10.69335938 4.90820312 C9.90767578 4.83537109 9.12199219 4.76253906 8.3125 4.6875 C7.51521484 4.62626953 6.71792969 4.56503906 5.89648438 4.50195312 C3.92983047 4.34886031 1.96471011 4.17629291 0 4 C0 2.68 0 1.36 0 0 Z " fill="#085CA2" transform="translate(26,80)"/>
<path d="M0 0 C13.6332574 -0.3690205 13.6332574 -0.3690205 20 2 C20.33 3.65 20.66 5.3 21 7 C18.03 6.67 15.06 6.34 12 6 C12 5.01 12 4.02 12 3 C9.56612247 1.78306124 7.58161154 1.68040104 4.875 1.4375 C3.96492188 1.35371094 3.05484375 1.26992187 2.1171875 1.18359375 C1.41851562 1.12300781 0.71984375 1.06242187 0 1 C0 0.67 0 0.34 0 0 Z " fill="#54C177" transform="translate(88,80)"/>
<path d="M0 0 C0 0.66 0 1.32 0 2 C-1.79143207 2.9795958 -3.58315304 3.9586633 -5.375 4.9375 C-6.37273437 5.48277344 -7.37046875 6.02804688 -8.3984375 6.58984375 C-9.92070346 7.4149759 -11.45128783 8.22564391 -13 9 C-13.33 7.68 -13.66 6.36 -14 5 C-12.61765122 3.96097967 -11.21844209 2.94436554 -9.8125 1.9375 C-9.03519531 1.36902344 -8.25789063 0.80054687 -7.45703125 0.21484375 C-4.48016155 -1.25702664 -3.112514 -0.96747771 0 0 Z " fill="#2DA16F" transform="translate(76,86)"/>
<path d="M0 0 C2.91517292 1.07401108 4.77810176 1.77810176 7 4 C7.19849071 6.54535141 7.27851775 8.95716759 7.25 11.5 C7.25773437 12.18964844 7.26546875 12.87929688 7.2734375 13.58984375 C7.25333293 18.74666707 7.25333293 18.74666707 5 21 C4 20 4 20 3.90234375 16.40234375 C3.9090178 14.91403133 3.92097817 13.42573568 3.9375 11.9375 C3.94201172 11.17888672 3.94652344 10.42027344 3.95117188 9.63867188 C3.9629932 7.75908129 3.98092922 5.87953101 4 4 C2.68 3.34 1.36 2.68 0 2 C0 1.34 0 0.68 0 0 Z " fill="#196599" transform="translate(54,19)"/>
<path d="M0 0 C0 0.66 0 1.32 0 2 C-1.04800781 2.39832031 -1.04800781 2.39832031 -2.1171875 2.8046875 C-3.48230469 3.33449219 -3.48230469 3.33449219 -4.875 3.875 C-6.23238281 4.39707031 -6.23238281 4.39707031 -7.6171875 4.9296875 C-10.12217007 5.88530895 -10.12217007 5.88530895 -12 8 C-11.68134222 11.29279709 -10.45484649 12.86535088 -8 15 C-10.375 14.8125 -10.375 14.8125 -13 14 C-14.5 11.8125 -14.5 11.8125 -15 9 C-13.70966476 5.70964513 -12.49858542 3.49858542 -10 1 C-6.62286946 0.08726202 -3.48722633 -0.09963504 0 0 Z " fill="#42975F" transform="translate(84,33)"/>
<path d="M0 0 C0.66 0.33 1.32 0.66 2 1 C0.7625 1.928125 0.7625 1.928125 -0.5 2.875 C-1.7375 3.926875 -1.7375 3.926875 -3 5 C-3 5.66 -3 6.32 -3 7 C-2.01 7.33 -1.02 7.66 0 8 C0 8.66 0 9.32 0 10 C3.465 9.505 3.465 9.505 7 9 C7.33 10.98 7.66 12.96 8 15 C3.22390502 13.35821735 -0.79382904 10.73453298 -5 8 C-4.64950425 4.75791433 -4.43778819 3.38472296 -1.9375 1.1875 C-1.298125 0.795625 -0.65875 0.40375 0 0 Z " fill="#4D9D66" transform="translate(84,35)"/>
<path d="M0 0 C0.66 0.66 1.32 1.32 2 2 C1.67 2.99 1.34 3.98 1 5 C3.97065509 4.65772428 3.97065509 4.65772428 7 4 C7.33 3.34 7.66 2.68 8 2 C13.28 2.33 18.56 2.66 24 3 C24 3.33 24 3.66 24 4 C22.84371094 4.09087891 22.84371094 4.09087891 21.6640625 4.18359375 C20.66117188 4.26738281 19.65828125 4.35117188 18.625 4.4375 C17.12839844 4.55931641 17.12839844 4.55931641 15.6015625 4.68359375 C13.02072387 4.84965626 13.02072387 4.84965626 11 6 C9.12620395 6.07033769 7.24998898 6.0843022 5.375 6.0625 C4.37210938 6.05347656 3.36921875 6.04445313 2.3359375 6.03515625 C1.56507812 6.02355469 0.79421875 6.01195313 0 6 C0 4.02 0 2.04 0 0 Z " fill="#0A62AA" transform="translate(16,73)"/>
<path d="M0 0 C1.98 0 3.96 0 6 0 C4.515 1.485 4.515 1.485 3 3 C3.33 3.66 3.66 4.32 4 5 C1.4345406 7.5654594 -0.47686668 7.54046087 -4 8 C-4 8.99 -4 9.98 -4 11 C-4.99 10.67 -5.98 10.34 -7 10 C-5.55079575 6.61852341 -3.62738345 4.54262915 -1 2 C-0.67 1.34 -0.34 0.68 0 0 Z " fill="#3EA45F" transform="translate(87,32)"/>
<path d="M0 0 C3.34861059 1.38563197 5.29014301 2.76027096 7 6 C7.11743801 11.28471033 4.67929738 13.98156379 1.27734375 17.6796875 C0.85582031 18.11539063 0.43429688 18.55109375 0 19 C-0.66 18.67 -1.32 18.34 -2 18 C-1.36771484 17.34644531 -1.36771484 17.34644531 -0.72265625 16.6796875 C2.76365195 12.88986541 4.73880963 10.35440266 5 5 C4.01 5.33 3.02 5.66 2 6 C1.34 4.02 0.68 2.04 0 0 Z " fill="#529E6B" transform="translate(76,48)"/>
<path d="M0 0 C2.49361571 1.20381448 4.68143083 2.45428722 7 4 C7 5.32 7 6.64 7 8 C3.00544473 7.38545304 0.25533664 5.29353263 -3 3 C-2.01 2.01 -1.02 1.02 0 0 Z " fill="#1683AC" transform="translate(56,88)"/>
<path d="M0 0 C10.55808656 -0.18451025 10.55808656 -0.18451025 15 1 C14.01 1.33 13.02 1.66 12 2 C12 2.66 12 3.32 12 4 C8.04 3.67 4.08 3.34 0 3 C0 2.01 0 1.02 0 0 Z " fill="#35A752" transform="translate(88,81)"/>
<path d="M0 0 C-0.5 1.8125 -0.5 1.8125 -2 4 C-4.5863924 5.26152609 -7.25200829 6.15643045 -10 7 C-10.33 9.31 -10.66 11.62 -11 14 C-11.33 14 -11.66 14 -12 14 C-12.70145591 8.82676264 -12.70145591 8.82676264 -12 6 C-9.61148234 3.75326649 -6.95520835 2.38265772 -4 1 C-2 0 -2 0 0 0 Z " fill="#3F9365" transform="translate(75,16)"/>
<path d="M0 0 C3.63 0 7.26 0 11 0 C11 0.99 11 1.98 11 3 C7.37 3 3.74 3 0 3 C0 2.01 0 1.02 0 0 Z " fill="#0862B4" transform="translate(26,80)"/>
<path d="M0 0 C-1.32 1.32 -2.64 2.64 -4 4 C-4.99 3.67 -5.98 3.34 -7 3 C-7 6.3 -7 9.6 -7 13 C-9 11 -9 11 -9.046875 8.90625 C-8.94890625 8.1121875 -8.8509375 7.318125 -8.75 6.5 C-8.66234375 5.7059375 -8.5746875 4.911875 -8.484375 4.09375 C-8 2 -8 2 -6 0 C-2.44444444 -1.22222222 -2.44444444 -1.22222222 0 0 Z " fill="#105999" transform="translate(24,17)"/>
<path d="M0 0 C2.4375 0.8125 2.4375 0.8125 5 2 C5.33 2.99 5.66 3.98 6 5 C3.69 6.32 1.38 7.64 -1 9 C-0.67 6.03 -0.34 3.06 0 0 Z " fill="#37955C" transform="translate(64,66)"/>
<path d="M0 0 C0 0.66 0 1.32 0 2 C-3.08809695 3.76462683 -4.23312136 4 -8 4 C-7.625 2.0625 -7.625 2.0625 -7 0 C-4.3333581 -1.33332095 -2.83319697 -0.67102033 0 0 Z " fill="#2C9E55" transform="translate(76,86)"/>
<path d="M0 0 C1.98 0 3.96 0 6 0 C6 0.99 6 1.98 6 3 C9.3 3 12.6 3 16 3 C16 3.33 16 3.66 16 4 C11.38 4 6.76 4 2 4 C2.33 3.34 2.66 2.68 3 2 C2.01 1.34 1.02 0.68 0 0 Z " fill="#51B46F" transform="translate(82,81)"/>
<path d="M0 0 C0.66 0.33 1.32 0.66 2 1 C-1.61328125 5.6875 -1.61328125 5.6875 -3 7 C-3.99 7 -4.98 7 -6 7 C-5.67 6.34 -5.34 5.68 -5 5 C-4.67 4.01 -4.34 3.02 -4 2 C-2.0625 0.75 -2.0625 0.75 0 0 Z " fill="#3FA261" transform="translate(75,63)"/>
<path d="M0 0 C-0.33 0.66 -0.66 1.32 -1 2 C-3.875 2.75 -3.875 2.75 -7 3 C-7.99 2.34 -8.98 1.68 -10 1 C-6.52674819 -0.1577506 -3.63932552 -0.06866652 0 0 Z " fill="#0F5395" transform="translate(27,81)"/>
</svg>
